<svg xmlns="http://www.w3.org/2000/svg" viewBox="0 0 100.572 35.257"><defs><style>.a{fill:#fff}.b{fill:#ec6338}</style></defs><path d="M22.81 25.985a4.182 4.182 0 0 0-4.072-2.505 4.75 4.75 0 0 0 .052 9.5 6.828 6.828 0 0 0 4.032-1.442l-1.235-1.355a6.282 6.282 0 0 1-2.8.652 2.032 2.032 0 0 1-2.3-1.946h6.463a4.5 4.5 0 0 0-.146-2.9m-6.224 1.42a2.2 2.2 0 0 1 4.018-.737 1.44 1.44 0 0 1 .226.737zM28.954 23.613h-1.515l-4.277 9.253h2.5l2.538-5.792 2.557 5.792h2.478zM38.512 26.277h-2.153v-2.665h-2.351v9.254h4.5c3.235 0 3.886-1.927 3.886-3.3s-.651-3.293-3.886-3.293m.259 4.39h-2.411v-2.186h2.415c1 0 1.276.5 1.276 1.089s-.279 1.1-1.276 1.1M46.044 19.906v12.96h2.558V22.318h4.882v10.549h2.555v-12.96zM65.894 25.985a4.182 4.182 0 0 0-4.072-2.505 4.75 4.75 0 0 0 .053 9.5 6.867 6.867 0 0 0 4.038-1.442l-1.242-1.355a6.26 6.26 0 0 1-2.8.652 2.03 2.03 0 0 1-2.292-1.946h6.457a4.509 4.509 0 0 0-.146-2.9m-6.224 1.42a2.2 2.2 0 0 1 4.018-.737 1.382 1.382 0 0 1 .225.737zM71.796 30.7a2.462 2.462 0 0 1 0-4.921 3.041 3.041 0 0 1 2.239.944l1.407-1.521a4.74 4.74 0 1 0 0 6.078l-1.407-1.522a3.046 3.046 0 0 1-2.239.943M95.815 23.48a4.749 4.749 0 1 0 4.756 4.755 4.738 4.738 0 0 0-4.756-4.755m0 7.22a2.472 2.472 0 0 1 0-4.941 2.472 2.472 0 0 1 0 4.941M76.28 23.599v9.259h2.358v-6.98h3.388v6.98h2.333v-6.98h3.394v6.98h2.351v-9.259zM11.589 2.168L9.906 3.72a4.591 4.591 0 0 0-3.252-1.29 4.247 4.247 0 0 0 0 8.486 4.514 4.514 0 0 0 3.252-1.29l1.683 1.552a6.734 6.734 0 0 1-4.935 2.168A6.673 6.673 0 0 1 6.654 0a6.734 6.734 0 0 1 4.935 2.168M21.537 12.018a4.478 4.478 0 0 1-4.673 4.766 6.433 6.433 0 0 1-4.15-1.458l1.346-1.439a5.749 5.749 0 0 0 2.8.729 2 2 0 0 0 2.281-2.056v-.6a3.2 3.2 0 0 1-2.561 1.1c-2.71 0-4.093-1.85-4.093-4.561V3.864h2.374v4.5c0 1.72.823 2.393 2.093 2.393 1.346 0 2.206-.8 2.206-2.6v-4.3h2.374zM23.241 13.215V3.874h2.374v7.047h3.42V3.874h2.356v7.047h3.42V3.874h2.374v9.346zM43.861 10.729c-.561-.86-.878-1.178-1.775-1.178h-.655v3.664h-2.374V3.869h2.374v3.4h.58c.879 0 1.2-.3 1.757-1.178l1.458-2.224h2.635l-2.093 3.159a3.712 3.712 0 0 1-1.327 1.365 3.469 3.469 0 0 1 1.42 1.4l2.243 3.421h-2.636z" class="a"/><path d="M57.659 8.538a4.794 4.794 0 1 1-4.8-4.8 4.786 4.786 0 0 1 4.8 4.8m-7.215 0a2.412 2.412 0 1 0 4.823 0 2.413 2.413 0 1 0-4.823 0M74.71 8.542a4.6 4.6 0 0 1-4.561 4.8 3.3 3.3 0 0 1-2.448-1.047v4.243h-2.374V12.3a3.308 3.308 0 0 1-2.449 1.047 4.8 4.8 0 0 1 0-9.589 3.883 3.883 0 0 1 3.028 1.384l.075-1.271h1.083l.075 1.252a3.861 3.861 0 0 1 3.009-1.365 4.585 4.585 0 0 1 4.561 4.785m-9.2 0a2.413 2.413 0 1 0-2.411 2.505 2.409 2.409 0 0 0 2.411-2.505m6.823 0a2.412 2.412 0 1 0-4.823 0 2.413 2.413 0 1 0 4.823 0" class="a"/><path d="M25.654 16.533a5.158 5.158 0 0 1 1.165-1.028 3.266 3.266 0 0 1 1.644-.54 2.216 2.216 0 0 1 .828.1c.253.082.5.176.749.281s.493.2.737.282a2.14 2.14 0 0 0 .817.1c.447-.027.969-.38 1.4-.329a.928.928 0 0 1 .3.11 11.852 11.852 0 0 1 1.662 1.027 11.918 11.918 0 0 1-1.175 1.04 3.141 3.141 0 0 1-1.632.55 2.208 2.208 0 0 1-.828-.1 7.1 7.1 0 0 1-.75-.292 7.824 7.824 0 0 0-.738-.293 2.423 2.423 0 0 0-1.709.1 1.176 1.176 0 0 1-.283.1 10.705 10.705 0 0 1-2.186-1.107M86.636 19.335a3.154 3.154 0 0 0-1.615-.545 2.1 2.1 0 0 0-.823.1 6.439 6.439 0 0 0-.745.286 8.223 8.223 0 0 1-.73.292 2.4 2.4 0 0 1-1.693-.1 1.061 1.061 0 0 0-.279-.1 10.311 10.311 0 0 0-2.165 1.1 5.2 5.2 0 0 0 1.155 1.016 3.278 3.278 0 0 0 1.627.537 2.193 2.193 0 0 0 .824-.1 7.106 7.106 0 0 0 .737-.279c.247-.1.492-.192.731-.278a2.148 2.148 0 0 1 .81-.093c.446.027.964.379 1.389.326a1.029 1.029 0 0 0 .3-.106 12.26 12.26 0 0 0 1.647-1.023 12.194 12.194 0 0 0-1.169-1.031M85.46 3.869L81.474 9.68V3.869h-2.4v9.346h1.769l4.044-5.9v5.9h2.415V3.869z" class="b"/><path d="M12.122 30.461L7.851 19.906H6.33L2 30.461H.279v4.8H2.83V32.87h8.442v2.391h2.558v-4.8zm-7.386 0l2.318-5.865 2.332 5.865z" class="a"/></svg>